<mxfile host="app.diagrams.net" modified="2024-03-11T12:44:37.278Z" agent="Mozilla/5.0 (Windows NT 10.0; Win64; x64) AppleWebKit/537.36 (KHTML, like Gecko) Chrome/122.0.0.0 Safari/537.36 Edg/122.0.0.0" etag="cjxwzMFZj2EEMIzggNa0" version="24.0.0" type="github">
  <diagram name="dnodcm" id="UQSi9a6BB6ItkI5QNvlL">
    <mxGraphModel dx="1072" dy="439" grid="1" gridSize="10" guides="1" tooltips="1" connect="1" arrows="1" fold="1" page="1" pageScale="1" pageWidth="850" pageHeight="1100" math="0" shadow="0">
      <root>
        <mxCell id="0" />
        <mxCell id="1" parent="0" />
        <mxCell id="n55kTpgbAC1Qk4OMio1X-31" style="edgeStyle=orthogonalEdgeStyle;rounded=0;orthogonalLoop=1;jettySize=auto;html=1;" parent="1" source="n55kTpgbAC1Qk4OMio1X-4" target="n55kTpgbAC1Qk4OMio1X-6" edge="1">
          <mxGeometry relative="1" as="geometry" />
        </mxCell>
        <mxCell id="n55kTpgbAC1Qk4OMio1X-4" value="Public_Dno_DCM_UserInputs" style="rounded=1;whiteSpace=wrap;html=1;" parent="1" vertex="1">
          <mxGeometry x="230" y="180" width="160" height="100" as="geometry" />
        </mxCell>
        <mxCell id="n55kTpgbAC1Qk4OMio1X-6" value="Public_Dno_DCM_Source_Data" style="rounded=1;whiteSpace=wrap;html=1;" parent="1" vertex="1">
          <mxGeometry x="560" y="130" width="180" height="100" as="geometry" />
        </mxCell>
        <mxCell id="n55kTpgbAC1Qk4OMio1X-16" style="edgeStyle=orthogonalEdgeStyle;rounded=0;orthogonalLoop=1;jettySize=auto;html=1;entryX=0.667;entryY=0;entryDx=0;entryDy=0;entryPerimeter=0;" parent="1" source="n55kTpgbAC1Qk4OMio1X-6" target="n55kTpgbAC1Qk4OMio1X-20" edge="1">
          <mxGeometry relative="1" as="geometry">
            <mxPoint x="570.0799999999999" y="288" as="targetPoint" />
          </mxGeometry>
        </mxCell>
        <mxCell id="n55kTpgbAC1Qk4OMio1X-28" value="" style="edgeStyle=orthogonalEdgeStyle;rounded=0;orthogonalLoop=1;jettySize=auto;html=1;" parent="1" source="n55kTpgbAC1Qk4OMio1X-20" target="n55kTpgbAC1Qk4OMio1X-21" edge="1">
          <mxGeometry relative="1" as="geometry" />
        </mxCell>
        <mxCell id="n55kTpgbAC1Qk4OMio1X-20" value="Public_Dno_DCM_Sim_Data" style="rounded=1;whiteSpace=wrap;html=1;fillColor=#66FF66;" parent="1" vertex="1">
          <mxGeometry x="450" y="290" width="180" height="100" as="geometry" />
        </mxCell>
        <mxCell id="n55kTpgbAC1Qk4OMio1X-21" value="Public_Dno_DCM_Summary_Data" style="rounded=1;whiteSpace=wrap;html=1;fillColor=#66FF66;" parent="1" vertex="1">
          <mxGeometry x="450" y="470" width="180" height="100" as="geometry" />
        </mxCell>
        <mxCell id="n55kTpgbAC1Qk4OMio1X-29" style="edgeStyle=orthogonalEdgeStyle;rounded=0;orthogonalLoop=1;jettySize=auto;html=1;entryX=0.561;entryY=0.03;entryDx=0;entryDy=0;entryPerimeter=0;" parent="1" source="n55kTpgbAC1Qk4OMio1X-4" target="n55kTpgbAC1Qk4OMio1X-20" edge="1">
          <mxGeometry relative="1" as="geometry" />
        </mxCell>
        <mxCell id="n55kTpgbAC1Qk4OMio1X-30" value="Based on scout input field , populating source data(loss data for Public DnO)" style="rounded=1;whiteSpace=wrap;html=1;" parent="1" vertex="1">
          <mxGeometry x="400" y="110" width="120" height="60" as="geometry" />
        </mxCell>
        <mxCell id="n55kTpgbAC1Qk4OMio1X-32" value="Sim Data will be populated based on user data and input source data" style="rounded=1;whiteSpace=wrap;html=1;" parent="1" vertex="1">
          <mxGeometry x="660" y="260" width="120" height="60" as="geometry" />
        </mxCell>
        <mxCell id="n55kTpgbAC1Qk4OMio1X-33" value="Summary data will be get derived from Sim data" style="rounded=1;whiteSpace=wrap;html=1;" parent="1" vertex="1">
          <mxGeometry x="560" y="400" width="120" height="60" as="geometry" />
        </mxCell>
      </root>
    </mxGraphModel>
  </diagram>
</mxfile>
